<svg width="104" height="22" viewBox="0 0 104 22" fill="none" xmlns="http://www.w3.org/2000/svg">
<path d="M9 2C4.03509 2 0 6.03509 0 11C0 15.9649 4.03509 20 9 20C13.9649 20 18 15.9649 18 11C18 6.03509 13.9649 2 9 2ZM12.0351 3.64912C13.9825 4.45614 15.5439 6.01754 16.3509 7.96491L14.5263 8.7193C13.9123 7.24561 12.7544 6.07018 11.2807 5.47368L12.0351 3.64912ZM5.96491 3.64912L6.7193 5.47368C5.24561 6.08772 4.07018 7.24561 3.47368 8.7193L1.64912 7.96491C2.45614 6 4 4.45614 5.96491 3.64912ZM5.96491 18.3509C4.01754 17.5439 2.45614 15.9825 1.64912 14.0351L3.47368 13.2807C4.08772 14.7544 5.24561 15.9298 6.7193 16.5263L5.96491 18.3509ZM4.07018 11C4.07018 8.2807 6.2807 6.07018 9 6.07018C11.7193 6.07018 13.9298 8.2807 13.9298 11C13.9298 13.7193 11.7193 15.9298 9 15.9298C6.2807 15.9298 4.07018 13.7193 4.07018 11ZM12.0351 18.3509L11.2807 16.5263C12.7544 15.9123 13.9298 14.7544 14.5263 13.2807L16.3509 14.0351C15.5439 16 14 17.5439 12.0351 18.3509Z" fill="url(#paint0_linear_1046_33507)"/>
<path d="M9.27426 9.33364L9.55147 9.44382C9.57353 9.45241 9.58824 9.47507 9.58824 9.50007C9.58824 9.52508 9.57353 9.54774 9.55147 9.55633L9.27426 9.6665L9.17059 9.96108C9.1625 9.98452 9.14118 10.0001 9.11765 10.0001C9.09412 10.0001 9.07279 9.98452 9.06471 9.96108L8.96103 9.6665L8.68382 9.55633C8.66176 9.54774 8.64706 9.52508 8.64706 9.50007C8.64706 9.47507 8.66176 9.45241 8.68382 9.44382L8.96103 9.33364L9.06471 9.03907C9.07279 9.01563 9.09412 9 9.11765 9C9.14118 9 9.1625 9.01563 9.17059 9.03907L9.27426 9.33364ZM10.661 12.0895C10.7985 12.2356 10.7985 12.4732 10.661 12.6201L10.4066 12.8904C10.2691 13.0365 10.0456 13.0365 9.90735 12.8904L7.10368 9.91029C6.96618 9.76417 6.96618 9.52664 7.10368 9.37974L7.35809 9.11017C7.49559 8.96406 7.71912 8.96406 7.85735 9.11017L10.661 12.0895ZM7.43676 9.64541L8.20882 10.4658L8.38015 10.2838L7.60809 9.46335L7.43676 9.64541ZM10.9449 9.91576C10.9779 9.92904 11 9.96264 11 10.0001C11 10.0377 10.9779 10.0713 10.9449 10.0845L10.5294 10.2502L10.3735 10.6917C10.361 10.7268 10.3294 10.7503 10.2941 10.7503C10.2588 10.7503 10.2272 10.7268 10.2147 10.6917L10.0588 10.2502L9.64338 10.0845C9.61029 10.0713 9.58824 10.0377 9.58824 10.0001C9.58824 9.96264 9.61029 9.92904 9.64338 9.91576L10.0588 9.75011L10.2147 9.30864C10.2272 9.27348 10.2588 9.25004 10.2941 9.25004C10.3294 9.25004 10.361 9.27348 10.3735 9.30864L10.5294 9.75011L10.9449 9.91576ZM8.35662 11.9161C8.38971 11.9293 8.41176 11.9629 8.41176 12.0004C8.41176 12.0379 8.38971 12.0715 8.35662 12.0848L7.94118 12.2505L7.78529 12.6919C7.77279 12.7271 7.74118 12.7505 7.70588 12.7505C7.67059 12.7505 7.63897 12.7271 7.62647 12.6919L7.47059 12.2505L7.05515 12.0848C7.02206 12.0715 7 12.0379 7 12.0004C7 11.9629 7.02206 11.9293 7.05515 11.9161L7.47059 11.7504L7.62647 11.3089C7.63897 11.2738 7.67059 11.2503 7.70588 11.2503C7.74118 11.2503 7.77279 11.2738 7.78529 11.3089L7.94118 11.7504L8.35662 11.9161Z" fill="url(#paint1_linear_1046_33507)"/>
<path d="M9.27426 9.33364L9.55147 9.44382C9.57353 9.45241 9.58824 9.47507 9.58824 9.50007C9.58824 9.52508 9.57353 9.54774 9.55147 9.55633L9.27426 9.6665L9.17059 9.96108C9.1625 9.98452 9.14118 10.0001 9.11765 10.0001C9.09412 10.0001 9.07279 9.98452 9.06471 9.96108L8.96103 9.6665L8.68382 9.55633C8.66176 9.54774 8.64706 9.52508 8.64706 9.50007C8.64706 9.47507 8.66176 9.45241 8.68382 9.44382L8.96103 9.33364L9.06471 9.03907C9.07279 9.01563 9.09412 9 9.11765 9C9.14118 9 9.1625 9.01563 9.17059 9.03907L9.27426 9.33364ZM10.661 12.0895C10.7985 12.2356 10.7985 12.4732 10.661 12.6201L10.4066 12.8904C10.2691 13.0365 10.0456 13.0365 9.90735 12.8904L7.10368 9.91029C6.96618 9.76417 6.96618 9.52664 7.10368 9.37974L7.35809 9.11017C7.49559 8.96406 7.71912 8.96406 7.85735 9.11017L10.661 12.0895ZM7.43676 9.64541L8.20882 10.4658L8.38015 10.2838L7.60809 9.46335L7.43676 9.64541ZM10.9449 9.91576C10.9779 9.92904 11 9.96264 11 10.0001C11 10.0377 10.9779 10.0713 10.9449 10.0845L10.5294 10.2502L10.3735 10.6917C10.361 10.7268 10.3294 10.7503 10.2941 10.7503C10.2588 10.7503 10.2272 10.7268 10.2147 10.6917L10.0588 10.2502L9.64338 10.0845C9.61029 10.0713 9.58824 10.0377 9.58824 10.0001C9.58824 9.96264 9.61029 9.92904 9.64338 9.91576L10.0588 9.75011L10.2147 9.30864C10.2272 9.27348 10.2588 9.25004 10.2941 9.25004C10.3294 9.25004 10.361 9.27348 10.3735 9.30864L10.5294 9.75011L10.9449 9.91576ZM8.35662 11.9161C8.38971 11.9293 8.41176 11.9629 8.41176 12.0004C8.41176 12.0379 8.38971 12.0715 8.35662 12.0848L7.94118 12.2505L7.78529 12.6919C7.77279 12.7271 7.74118 12.7505 7.70588 12.7505C7.67059 12.7505 7.63897 12.7271 7.62647 12.6919L7.47059 12.2505L7.05515 12.0848C7.02206 12.0715 7 12.0379 7 12.0004C7 11.9629 7.02206 11.9293 7.05515 11.9161L7.47059 11.7504L7.62647 11.3089C7.63897 11.2738 7.67059 11.2503 7.70588 11.2503C7.74118 11.2503 7.77279 11.2738 7.78529 11.3089L7.94118 11.7504L8.35662 11.9161Z" fill="black"/>
<path d="M26.68 17L23.24 5.432H24.872L26.984 12.504C27.0693 12.8027 27.1493 13.1173 27.224 13.448C27.2987 13.7787 27.3787 14.1627 27.464 14.6C27.56 14.1307 27.6507 13.7413 27.736 13.432C27.832 13.1227 27.9227 12.8133 28.008 12.504L30.2 5.432H31.896L34.072 12.504C34.168 12.8133 34.2587 13.1333 34.344 13.464C34.4293 13.7947 34.5147 14.1733 34.6 14.6C34.7067 14.1093 34.7973 13.704 34.872 13.384C34.9573 13.064 35.0373 12.776 35.112 12.52L37.24 5.432H38.84L35.352 17H33.848L31.048 7.848L28.216 17H26.68ZM40.0061 17V9.176H41.5101V17H40.0061ZM40.7421 7.32C40.4755 7.32 40.2408 7.224 40.0381 7.032C39.8461 6.82933 39.7501 6.59467 39.7501 6.328C39.7501 6.05067 39.8461 5.816 40.0381 5.624C40.2408 5.432 40.4755 5.336 40.7421 5.336C41.0195 5.336 41.2541 5.432 41.4461 5.624C41.6381 5.816 41.7341 6.05067 41.7341 6.328C41.7341 6.59467 41.6381 6.82933 41.4461 7.032C41.2541 7.224 41.0195 7.32 40.7421 7.32ZM49.1496 17H43.0536V15.784L47.2776 10.44H43.0536V9.176H49.1496V10.408L44.8936 15.736H49.1496V17ZM52.9741 17.192C52.1421 17.192 51.4861 16.9733 51.0061 16.536C50.5368 16.0987 50.3021 15.528 50.3021 14.824C50.3021 14.1093 50.5581 13.5387 51.0701 13.112C51.5821 12.6747 52.2968 12.4187 53.2141 12.344L55.6781 12.152V11.928C55.6781 11.4907 55.5981 11.144 55.4381 10.888C55.2781 10.6213 55.0595 10.4347 54.7821 10.328C54.5048 10.2107 54.1901 10.152 53.8381 10.152C53.2088 10.152 52.7181 10.2853 52.3661 10.552C52.0248 10.808 51.8541 11.176 51.8541 11.656H50.5421C50.5421 11.112 50.6808 10.6373 50.9581 10.232C51.2355 9.82667 51.6248 9.512 52.1261 9.288C52.6381 9.064 53.2301 8.952 53.9021 8.952C54.5528 8.952 55.1181 9.06933 55.5981 9.304C56.0888 9.528 56.4675 9.87467 56.7341 10.344C57.0115 10.8027 57.1501 11.384 57.1501 12.088V17H55.8701L55.7101 15.736C55.5075 16.184 55.1555 16.5413 54.6541 16.808C54.1635 17.064 53.6035 17.192 52.9741 17.192ZM53.4061 16.024C54.1208 16.024 54.6808 15.8107 55.0861 15.384C55.4915 14.9467 55.6941 14.36 55.6941 13.624V13.208L53.6941 13.368C53.0328 13.432 52.5528 13.5867 52.2541 13.832C51.9661 14.0773 51.8221 14.392 51.8221 14.776C51.8221 15.192 51.9608 15.5067 52.2381 15.72C52.5261 15.9227 52.9155 16.024 53.4061 16.024ZM63.553 9.112V10.488H62.881C62.1663 10.488 61.601 10.696 61.185 11.112C60.7797 11.5173 60.577 12.0987 60.577 12.856V17H59.073V9.192H60.481L60.609 10.76H60.465C60.5717 10.248 60.8277 9.832 61.233 9.512C61.6383 9.18133 62.145 9.016 62.753 9.016C62.8917 9.016 63.0197 9.02667 63.137 9.048C63.265 9.05867 63.4037 9.08 63.553 9.112ZM67.6584 17.192C66.901 17.192 66.2504 17.0213 65.7064 16.68C65.1624 16.328 64.741 15.8427 64.4424 15.224C64.1544 14.6053 64.0104 13.9013 64.0104 13.112C64.0104 12.312 64.1597 11.6027 64.4584 10.984C64.757 10.3547 65.1837 9.85867 65.7384 9.496C66.293 9.13333 66.9544 8.952 67.7224 8.952C68.3304 8.952 68.869 9.08 69.3384 9.336C69.8184 9.58133 70.1917 9.94933 70.4584 10.44V5.224H71.9464V17H70.6024L70.4744 15.576C70.2184 16.0987 69.8397 16.4987 69.3384 16.776C68.8477 17.0533 68.2877 17.192 67.6584 17.192ZM67.9624 15.832C68.4744 15.832 68.9117 15.7147 69.2744 15.48C69.6477 15.2453 69.9357 14.92 70.1384 14.504C70.341 14.088 70.4424 13.608 70.4424 13.064C70.4424 12.52 70.341 12.0453 70.1384 11.64C69.9357 11.224 69.6477 10.8987 69.2744 10.664C68.9117 10.4293 68.4744 10.312 67.9624 10.312C67.4504 10.312 67.013 10.4347 66.6504 10.68C66.2877 10.9147 66.0104 11.24 65.8184 11.656C65.6264 12.0613 65.5304 12.5307 65.5304 13.064C65.5304 13.608 65.6264 14.088 65.8184 14.504C66.0104 14.92 66.2877 15.2453 66.6504 15.48C67.013 15.7147 67.4504 15.832 67.9624 15.832ZM73.3161 14.728H74.7561C74.7561 15.1227 74.9001 15.4373 75.1881 15.672C75.4761 15.896 75.8655 16.008 76.3561 16.008C76.8895 16.008 77.3001 15.9067 77.5881 15.704C77.8761 15.4907 78.0201 15.208 78.0201 14.856C78.0201 14.6 77.9401 14.3867 77.7801 14.216C77.6308 14.0453 77.3535 13.9067 76.9481 13.8L75.5721 13.48C74.8788 13.3093 74.3615 13.048 74.0201 12.696C73.6895 12.344 73.5241 11.88 73.5241 11.304C73.5241 10.824 73.6468 10.408 73.8921 10.056C74.1481 9.704 74.4948 9.432 74.9321 9.24C75.3801 9.048 75.8921 8.952 76.4681 8.952C77.0441 8.952 77.5401 9.05333 77.9561 9.256C78.3828 9.45867 78.7135 9.74133 78.9481 10.104C79.1935 10.4667 79.3215 10.8987 79.3321 11.4H77.8921C77.8815 10.9947 77.7481 10.68 77.4921 10.456C77.2361 10.232 76.8788 10.12 76.4201 10.12C75.9508 10.12 75.5881 10.2213 75.3321 10.424C75.0761 10.6267 74.9481 10.904 74.9481 11.256C74.9481 11.7787 75.3321 12.136 76.1001 12.328L77.4761 12.664C78.1375 12.8133 78.6335 13.0587 78.9641 13.4C79.2948 13.7307 79.4601 14.184 79.4601 14.76C79.4601 15.2507 79.3268 15.6827 79.0601 16.056C78.7935 16.4187 78.4255 16.7013 77.9561 16.904C77.4975 17.096 76.9535 17.192 76.3241 17.192C75.4068 17.192 74.6761 16.968 74.1321 16.52C73.5881 16.072 73.3161 15.4747 73.3161 14.728ZM82.472 16.984H80.968V5.224H82.472V10.376C82.7173 9.94933 83.0693 9.608 83.528 9.352C83.9867 9.08533 84.52 8.952 85.128 8.952C86.12 8.952 86.8613 9.24533 87.352 9.832C87.8427 10.4187 88.088 11.2133 88.088 12.216V17H86.584V12.552C86.584 12.0187 86.504 11.592 86.344 11.272C86.1947 10.9413 85.976 10.7013 85.688 10.552C85.4107 10.4027 85.0853 10.328 84.712 10.328C84.232 10.328 83.8213 10.4347 83.48 10.648C83.1493 10.8613 82.8987 11.1493 82.728 11.512C82.5573 11.8747 82.472 12.28 82.472 12.728V16.984ZM89.4991 13.08C89.4991 12.28 89.6751 11.5707 90.0271 10.952C90.3791 10.3333 90.8591 9.848 91.4671 9.496C92.0858 9.144 92.7898 8.968 93.5791 8.968C94.3685 8.968 95.0671 9.144 95.6751 9.496C96.2831 9.848 96.7631 10.3333 97.1151 10.952C97.4671 11.5707 97.6431 12.28 97.6431 13.08C97.6431 13.88 97.4671 14.5893 97.1151 15.208C96.7631 15.8267 96.2831 16.312 95.6751 16.664C95.0671 17.016 94.3685 17.192 93.5791 17.192C92.7898 17.192 92.0858 17.016 91.4671 16.664C90.8591 16.312 90.3791 15.8267 90.0271 15.208C89.6751 14.5893 89.4991 13.88 89.4991 13.08ZM91.0191 13.08C91.0191 13.624 91.1258 14.104 91.3391 14.52C91.5631 14.936 91.8671 15.2613 92.2511 15.496C92.6351 15.7307 93.0778 15.848 93.5791 15.848C94.0805 15.848 94.5231 15.7307 94.9071 15.496C95.2911 15.2613 95.5898 14.936 95.8031 14.52C96.0271 14.104 96.1391 13.624 96.1391 13.08C96.1391 12.5253 96.0271 12.0453 95.8031 11.64C95.5898 11.224 95.2911 10.8987 94.9071 10.664C94.5231 10.4293 94.0805 10.312 93.5791 10.312C93.0778 10.312 92.6351 10.4293 92.2511 10.664C91.8671 10.8987 91.5631 11.224 91.3391 11.64C91.1258 12.0453 91.0191 12.5253 91.0191 13.08ZM98.2379 9.176H102.814V10.44H98.2379V9.176ZM101.278 17H99.7739V6.728H101.278V17Z" fill="#05204E"/>
<defs>
<linearGradient id="paint0_linear_1046_33507" x1="9" y1="2" x2="9" y2="20" gradientUnits="userSpaceOnUse">
<stop stop-color="#5237F8"/>
<stop offset="0.0001" stop-color="#2D32A6"/>
<stop offset="1" stop-color="#FF008A"/>
</linearGradient>
<linearGradient id="paint1_linear_1046_33507" x1="9" y1="9" x2="9" y2="13" gradientUnits="userSpaceOnUse">
<stop stop-color="#1125DD"/>
<stop offset="1" stop-color="#9B0BA7"/>
</linearGradient>
</defs>
</svg>
